<?xml version="1.0" encoding="UTF-8" standalone="no" ?>
<!DOCTYPE svg PUBLIC "-//W3C//DTD SVG 1.1//EN" "http://www.w3.org/Graphics/SVG/1.1/DTD/svg11.dtd">
<svg xmlns="http://www.w3.org/2000/svg" xmlns:xlink="http://www.w3.org/1999/xlink" version="1.1" width="50" height="50" viewBox="0 0 50 50" xml:space="preserve">
<desc>Created with Fabric.js 5.3.0</desc>
<defs>
</defs>
<g transform="matrix(1.6666666667 0 0 1.6666666667 25.0708215297 25.0708215297)" id="j1EmFdMqNjnzq1VJqdTQm"  >
<g style=""   >
		<g transform="matrix(3.7263168433 0 0 0.1242105614 0.0353293661 6.211e-7)" id="ZEYPDX6f5Q08rA5cQdhaZ"  >
<path style="stroke: rgb(81,178,179); stroke-width: 0; stroke-dasharray: none; stroke-linecap: butt; stroke-dashoffset: 0; stroke-linejoin: miter; stroke-miterlimit: 4; fill: rgb(153,153,153); fill-rule: nonzero; opacity: 1;"  transform=" translate(-0.000005, -0.000005)" d="M -4.02542 -4.02542 L 4.02543 -4.02542 L 4.02543 4.02543 L -4.02542 4.02543 z" stroke-linecap="round" />
</g>
		<g transform="matrix(0.1242105614 0 0 3.7263168433 6.211e-7 -0.0352921029)" id="Tf7lkLh3RkOtiyLVhL0jM"  >
<path style="stroke: rgb(81,178,179); stroke-width: 0; stroke-dasharray: none; stroke-linecap: butt; stroke-dashoffset: 0; stroke-linejoin: miter; stroke-miterlimit: 4; fill: rgb(153,153,153); fill-rule: nonzero; opacity: 1;"  transform=" translate(-0.000005, -0.000005)" d="M -4.02542 -4.02542 L 4.02543 -4.02542 L 4.02543 4.02543 L -4.02542 4.02543 z" stroke-linecap="round" />
</g>
		<g transform="matrix(0.1001263202 0.1001263202 -4.247999312 4.247999312 -0.0000207394 0.0000217406)" id="GqjVFZHLXd40Kv0KwSyrn"  >
<path style="stroke: rgb(105,236,114); stroke-width: 0; stroke-dasharray: none; stroke-linecap: butt; stroke-dashoffset: 0; stroke-linejoin: miter; stroke-miterlimit: 4; fill: rgb(153,153,153); fill-rule: nonzero; opacity: 1;"  transform=" translate(-0.000005, -0.000005)" d="M -3.53107 -3.53107 L 3.5310799999999998 -3.53107 L 3.5310799999999998 3.5310799999999998 L -3.53107 3.5310799999999998 z" stroke-linecap="round" />
</g>
		<g transform="matrix(-0.1001263202 0.1001263202 4.247999312 4.247999312 0.0353107345 -0.0353107345)" id="_vgu86BKf8BH_5hTtUPbf"  >
<path style="stroke: rgb(105,236,114); stroke-width: 0; stroke-dasharray: none; stroke-linecap: butt; stroke-dashoffset: 0; stroke-linejoin: miter; stroke-miterlimit: 4; fill: rgb(153,153,153); fill-rule: nonzero; opacity: 1;"  transform=" translate(-0.000005, -0.000005)" d="M -3.53107 -3.53107 L 3.5310799999999998 -3.53107 L 3.5310799999999998 3.5310799999999998 L -3.53107 3.5310799999999998 z" stroke-linecap="round" />
</g>
</g>
</g>
</svg>