<?xml version="1.0" encoding="UTF-8" standalone="no" ?>
<!DOCTYPE svg PUBLIC "-//W3C//DTD SVG 1.1//EN" "http://www.w3.org/Graphics/SVG/1.1/DTD/svg11.dtd">
<svg xmlns="http://www.w3.org/2000/svg" xmlns:xlink="http://www.w3.org/1999/xlink" version="1.1" width="30" height="30" viewBox="0 0 30 30" xml:space="preserve">
<desc>Created with Fabric.js 5.3.0</desc>
<defs>
</defs>
<g transform="matrix(3.7263168433 0 0 0.1242105614 15.0353107345 15)" id="4nxbeLXIBUu9lslaV4zj9"  >
<path style="stroke: rgb(81,178,179); stroke-width: 0; stroke-dasharray: none; stroke-linecap: butt; stroke-dashoffset: 0; stroke-linejoin: miter; stroke-miterlimit: 4; fill: rgb(238,106,106); fill-rule: nonzero; opacity: 1;"  transform=" translate(0, 0)" d="M -4.02542 -4.02542 L 4.02543 -4.02542 L 4.02543 4.02543 L -4.02542 4.02543 z" stroke-linecap="round" />
</g>
<g transform="matrix(0.1242105614 0 0 3.7263168433 15 14.9646892655)" id="srgNKt1oySyMYUieTk7nZ"  >
<path style="stroke: rgb(81,178,179); stroke-width: 0; stroke-dasharray: none; stroke-linecap: butt; stroke-dashoffset: 0; stroke-linejoin: miter; stroke-miterlimit: 4; fill: rgb(238,106,106); fill-rule: nonzero; opacity: 1;"  transform=" translate(0, 0)" d="M -4.02542 -4.02542 L 4.02543 -4.02542 L 4.02543 4.02543 L -4.02542 4.02543 z" stroke-linecap="round" />
</g>
<g transform="matrix(0.1001263202 0.1001263202 -4.247999312 4.247999312 15 15)" id="rBTmQfkpdyvSgrlCKjgQ8"  >
<path style="stroke: rgb(105,236,114); stroke-width: 0; stroke-dasharray: none; stroke-linecap: butt; stroke-dashoffset: 0; stroke-linejoin: miter; stroke-miterlimit: 4; fill: rgb(238,106,106); fill-rule: nonzero; opacity: 1;"  transform=" translate(0, 0)" d="M -3.53107 -3.53107 L 3.5310799999999998 -3.53107 L 3.5310799999999998 3.5310799999999998 L -3.53107 3.5310799999999998 z" stroke-linecap="round" />
</g>
<g transform="matrix(-0.1001263202 0.1001263202 4.247999312 4.247999312 15.0353107345 14.9646892655)" id="U6wKalCqTzncK2GO3WxuJ"  >
<path style="stroke: rgb(105,236,114); stroke-width: 0; stroke-dasharray: none; stroke-linecap: butt; stroke-dashoffset: 0; stroke-linejoin: miter; stroke-miterlimit: 4; fill: rgb(238,106,106); fill-rule: nonzero; opacity: 1;"  transform=" translate(-0.000005, -0.000005)" d="M -3.53107 -3.53107 L 3.5310799999999998 -3.53107 L 3.5310799999999998 3.5310799999999998 L -3.53107 3.5310799999999998 z" stroke-linecap="round" />
</g>
</svg>